<svg xmlns="http://www.w3.org/2000/svg" width="24" height="18" viewBox="0 0 24 18" fill="none"><path d="M10.4099 11.5742H13.8828V15.0471H10.4099V11.5742Z" fill="#0F7A4F"></path><path d="M12.5566 11.5742H13.8829V15.0471H12.5566V11.5742Z" fill="#0C6842"></path><path d="M22.3881 9.04378L19.582 9.52669L16.4029 9.04383L15.1132 5.52103C15.0934 5.46745 15.0837 5.41045 15.0837 5.35345V2.01806L17.1636 1.53516L19.2768 2.01806V3.52134L22.3069 8.82839C22.3456 8.89603 22.3726 8.96845 22.3881 9.04378Z" fill="#FEE265"></path><path d="M22.3881 9.04377H20.9075C20.892 8.96891 20.865 8.89602 20.8263 8.82837L17.7961 3.52133V2.01758H19.2767V3.52133L22.3069 8.82837C22.3451 8.89602 22.3726 8.96891 22.3881 9.04377Z" fill="#FDD330"></path><path d="M21.3677 7.18331H17.8227L16.8801 3.52148H19.2768L21.3677 7.18331Z" fill="#FFF8E2"></path><path d="M21.3676 7.18331H19.8871L17.7961 3.52148H19.2767L21.3676 7.18331Z" fill="#FDF0B2"></path><path d="M22.3967 9.28873L21.4768 16.0556H8.7998L8.31689 15.3215L8.7998 14.4374H15.9153C16.1847 14.4374 16.403 14.2192 16.403 13.9502V9.04297H22.3885C22.4049 9.12359 22.4078 9.20619 22.3967 9.28873Z" fill="#2DB181"></path><path d="M22.3965 9.29064L21.4766 16.0574H19.9961L20.916 9.29064C20.9272 9.20823 20.9243 9.12541 20.9077 9.04492H22.3882C22.4048 9.12536 22.4077 9.20823 22.3965 9.29064Z" fill="#1CA56F"></path><path d="M10.7721 8.10292C10.572 8.10292 10.4099 7.94078 10.4099 7.74077V2.01841C10.4099 1.81834 10.5721 1.65625 10.7721 1.65625C10.9721 1.65625 11.1342 1.81839 11.1342 2.01841V7.74072C11.1343 7.94078 10.9721 8.10292 10.7721 8.10292Z" fill="#2DB181"></path><path d="M20.6902 0.799125C20.6902 1.13569 20.554 1.44042 20.3333 1.66111C20.1126 1.8818 19.8079 2.01797 19.4713 2.01797H6.60693C5.93376 2.01797 5.38809 2.56364 5.38809 3.2363V4.37691L2.42493 4.87894L1.95276 9.23874H0.390137V4.25039C0.390137 1.94827 2.25637 0.0820312 4.5585 0.0820312H19.9726C20.3691 0.0820312 20.6902 0.403172 20.6902 0.799125Z" fill="#FC9744"></path><path d="M20.6898 0.799125C20.6898 1.13597 20.5533 1.44019 20.3329 1.66102C20.1126 1.88133 19.8074 2.01783 19.4711 2.01783H17.9268C18.2631 2.01783 18.5683 1.88133 18.7886 1.66102C19.009 1.44019 19.1455 1.13597 19.1455 0.799125C19.1455 0.403265 18.8242 0.0820312 18.4284 0.0820312H19.9727C20.369 0.0820312 20.6898 0.403265 20.6898 0.799125Z" fill="#FB8627"></path><path d="M6.60689 2.01758C5.93372 2.01758 5.38805 2.56372 5.38805 3.23642V4.37703H3.84375V3.23642C3.84375 2.56377 4.38942 2.01758 5.06259 2.01758H6.60689Z" fill="#FB8627"></path><path d="M5.38816 9.23874H1.95288V4.86445C1.95288 4.5952 2.17113 4.37695 2.44038 4.37695H5.38821V9.23874H5.38816Z" fill="#FEE265"></path><path d="M8.79975 16.0573H0.482906C0.216187 16.0573 0 15.841 0 15.5744V9.53242C0 9.26317 0.21825 9.04492 0.4875 9.04492H7.07901C8.02936 9.04492 8.79975 9.81531 8.79975 10.7657V16.0573Z" fill="#2DB181"></path><path d="M8.79953 10.7657V16.0574H7.06848V10.7657C7.06848 9.81517 6.29777 9.04492 5.34766 9.04492H7.0787C8.02928 9.04488 8.79953 9.81512 8.79953 10.7657Z" fill="#1CA56F"></path><path d="M4.38308 17.9195C5.81761 17.9195 6.98052 16.7566 6.98052 15.322C6.98052 13.8875 5.81761 12.7246 4.38308 12.7246C2.94856 12.7246 1.78564 13.8875 1.78564 15.322C1.78564 16.7566 2.94856 17.9195 4.38308 17.9195Z" fill="#433F43"></path><path d="M4.38296 16.5169C5.04239 16.5169 5.57696 15.9823 5.57696 15.3229C5.57696 14.6635 5.04239 14.1289 4.38296 14.1289C3.72354 14.1289 3.18896 14.6635 3.18896 15.3229C3.18896 15.9823 3.72354 16.5169 4.38296 16.5169Z" fill="#A69CA7"></path><path d="M7.10211 14.7999C7.28351 14.7999 7.4119 14.6245 7.35954 14.4508C6.97409 13.1718 5.78754 12.2402 4.38293 12.2402C2.97833 12.2402 1.79178 13.1718 1.40633 14.4508C1.35397 14.6244 1.4824 14.7999 1.66376 14.7999H7.10211Z" fill="#0F7A4F"></path><path d="M7.10223 14.8H5.53445C5.71581 14.8 5.84401 14.6245 5.79184 14.451C5.48036 13.4185 4.6472 12.6122 3.59912 12.3402C3.84967 12.2749 4.11198 12.2402 4.38301 12.2402C5.78748 12.2402 6.97398 13.1718 7.35962 14.451C7.41179 14.6246 7.28359 14.8 7.10223 14.8Z" fill="#0C6842"></path><path d="M22.5565 12.5499H21.514C20.9754 12.5499 20.5388 12.1133 20.5388 11.5748C20.5388 11.0362 20.9754 10.5996 21.514 10.5996H22.5565C22.6911 10.5996 22.8003 10.7087 22.8003 10.8434V12.3061C22.8003 12.4408 22.6911 12.5499 22.5565 12.5499Z" fill="#FEE265"></path><path d="M22.8003 10.8434V12.3058C22.8003 12.4409 22.691 12.5496 22.5565 12.5496H21.5771C21.7117 12.5496 21.8209 12.4409 21.8209 12.3058V10.8434C21.8209 10.7088 21.7117 10.5996 21.5771 10.5996H22.5565C22.691 10.5996 22.8003 10.7088 22.8003 10.8434Z" fill="#FDD330"></path><path d="M21.0115 17.9195C22.446 17.9195 23.6089 16.7566 23.6089 15.322C23.6089 13.8875 22.446 12.7246 21.0115 12.7246C19.577 12.7246 18.4141 13.8875 18.4141 15.322C18.4141 16.7566 19.577 17.9195 21.0115 17.9195Z" fill="#433F43"></path><path d="M21.0114 16.5169C21.6708 16.5169 22.2054 15.9823 22.2054 15.3229C22.2054 14.6635 21.6708 14.1289 21.0114 14.1289C20.352 14.1289 19.8174 14.6635 19.8174 15.3229C19.8174 15.9823 20.352 16.5169 21.0114 16.5169Z" fill="#A69CA7"></path><path d="M23.7305 14.7999C23.9119 14.7999 24.0403 14.6245 23.988 14.4508C23.6025 13.1718 22.416 12.2402 21.0114 12.2402C19.6067 12.2402 18.4202 13.1718 18.0347 14.4508C17.9824 14.6244 18.1108 14.7999 18.2922 14.7999H23.7305Z" fill="#0F7A4F"></path><path d="M23.7308 14.8H22.1626C22.344 14.8 22.4726 14.6245 22.42 14.451C22.109 13.4185 21.2763 12.6127 20.2278 12.3402C20.4783 12.2749 20.7406 12.2402 21.0117 12.2402C22.4161 12.2402 23.6027 13.1718 23.9883 14.451C24.0404 14.6246 23.9122 14.8 23.7308 14.8Z" fill="#0C6842"></path><path d="M3.92014 6.62666H3.23764C3.03758 6.62666 2.87549 6.46452 2.87549 6.2645C2.87549 6.06448 3.03763 5.90234 3.23764 5.90234H3.9201C4.12016 5.90234 4.28225 6.06448 4.28225 6.2645C4.28225 6.46452 4.12016 6.62666 3.92014 6.62666Z" fill="#FB8627"></path><path d="M3.92014 7.73994H3.23764C3.03758 7.73994 2.87549 7.5778 2.87549 7.37778C2.87549 7.17777 3.03763 7.01562 3.23764 7.01562H3.9201C4.12016 7.01562 4.28225 7.17777 4.28225 7.37778C4.28225 7.5778 4.12016 7.73994 3.92014 7.73994Z" fill="#FB8627"></path><path d="M12.0439 12.3291H10.4099V7.34531C10.4099 7.21069 10.519 7.10156 10.6537 7.10156H11.8001C11.9348 7.10156 12.0439 7.21069 12.0439 7.34531V12.3291Z" fill="#FEE265"></path><path d="M10.4099 12.8449V11.2109H14.175C14.4443 11.2109 14.6625 11.4292 14.6625 11.6984V12.3575C14.6625 12.6267 14.4443 12.845 14.175 12.845H10.4099V12.8449Z" fill="#554E55"></path><path d="M14.6626 11.6984V12.3575C14.6626 12.6266 14.4442 12.845 14.1751 12.845H12.8823C13.1519 12.845 13.3698 12.6266 13.3698 12.3575V11.6984C13.3698 11.4293 13.1519 11.2109 12.8823 11.2109H14.1751C14.4442 11.211 14.6626 11.4294 14.6626 11.6984Z" fill="#433F43"></path><path d="M6.40202 10.9626H2.7872C2.58714 10.9626 2.42505 10.8005 2.42505 10.6004C2.42505 10.4004 2.58719 10.2383 2.7872 10.2383H6.40206C6.60213 10.2383 6.76422 10.4004 6.76422 10.6004C6.76422 10.8005 6.60208 10.9626 6.40202 10.9626Z" fill="#0F7A4F"></path></svg>