<svg xmlns="http://www.w3.org/2000/svg" width="24" height="16" viewBox="0 0 24 16" fill="none"><path d="M13.5061 3.84215C13.3379 3.84215 13.1881 3.72249 13.1559 3.55086C13.1194 3.35694 13.2469 3.17006 13.4405 3.13358L15.8662 2.67621C16.0599 2.6395 16.2464 2.76733 16.2829 2.96125C16.3194 3.15517 16.1919 3.34206 15.9983 3.37853L13.5726 3.83591C13.5502 3.84018 13.528 3.84215 13.5061 3.84215Z" fill="#35495D"></path><path d="M15.9217 1.80735L14.8527 0.507812L13.9338 0.514666L15.3709 2.26177C15.4415 2.34758 15.5436 2.3919 15.6466 2.3919C15.7264 2.3919 15.8068 2.36519 15.8732 2.31036C16.0253 2.18488 16.047 1.95969 15.9217 1.80735Z" fill="#1785B8"></path><path d="M4.94162 3.66016H10.1956C11.2158 3.66016 12.0462 4.48317 12.074 5.49819L12.0403 5.54204H5.95703C5.15772 5.54204 4.50977 4.89313 4.50977 4.09265C4.50977 3.8538 4.70312 3.66016 4.94162 3.66016Z" fill="#1785B8"></path><path d="M10.1956 3.66016H9.12964C9.89084 3.66016 9.87987 5.54204 9.87987 5.54204H12.0403L12.074 5.49819C12.0462 4.48317 11.2159 3.66016 10.1956 3.66016Z" fill="#0A7693"></path><path d="M5.12383 15.999C6.84152 15.999 8.23398 14.6045 8.23398 12.8842C8.23398 11.164 6.84152 9.76953 5.12383 9.76953C3.40614 9.76953 2.01367 11.164 2.01367 12.8842C2.01367 14.6045 3.40614 15.999 5.12383 15.999Z" fill="#35495D"></path><path d="M5.12375 9.76953C4.73773 9.76953 4.36841 9.84046 4.02734 9.96918C5.204 10.4133 6.04123 11.5507 6.04123 12.8843C6.04123 14.218 5.204 15.3555 4.02734 15.7995C4.36841 15.9282 4.73773 15.9991 5.12375 15.9991C6.84148 15.9991 8.23405 14.6046 8.23405 12.8843C8.234 11.1641 6.84148 9.76953 5.12375 9.76953Z" fill="#2A3A4C"></path><path d="M5.12354 14.6541C4.14985 14.6541 3.35767 13.8608 3.35767 12.8857C3.35767 11.9105 4.14981 11.1172 5.12354 11.1172C6.09728 11.1172 6.88942 11.9105 6.88942 12.8857C6.88942 13.8608 6.09728 14.6541 5.12354 14.6541Z" fill="#CADDEA"></path><path d="M20.8899 15.999C22.6076 15.999 24.0001 14.6045 24.0001 12.8842C24.0001 11.164 22.6076 9.76953 20.8899 9.76953C19.1722 9.76953 17.7798 11.164 17.7798 12.8842C17.7798 14.6045 19.1722 15.999 20.8899 15.999Z" fill="#35495D"></path><path d="M20.8897 9.76953C20.5045 9.76953 20.1359 9.84014 19.7954 9.96834C20.9732 10.4119 21.8115 11.5499 21.8115 12.8844C21.8115 14.2189 20.9732 15.3569 19.7954 15.8004C20.1359 15.9286 20.5044 15.9992 20.8897 15.9992C22.6074 15.9992 24 14.6047 24 12.8844C24 11.1641 22.6074 9.76953 20.8897 9.76953Z" fill="#2A3A4C"></path><path d="M20.8897 14.6541C19.916 14.6541 19.1238 13.8608 19.1238 12.8857C19.1238 11.9105 19.9159 11.1172 20.8897 11.1172C21.8634 11.1172 22.6555 11.9105 22.6555 12.8857C22.6555 13.8608 21.8634 14.6541 20.8897 14.6541Z" fill="#CADDEA"></path><path d="M21.1629 13.3633C20.812 13.5469 20.3788 13.4109 20.1955 13.0595L18.2256 9.28419L19.4964 8.61914L21.4663 12.3944C21.6497 12.7459 21.5139 13.1796 21.1629 13.3633Z" fill="#D0D1D2"></path><path d="M23.169 9.39446C22.5682 8.23302 21.2644 7.54056 19.8506 7.70542L16.875 2.47266L15.6442 2.91402C15.6442 2.91402 17.5648 7.51774 16.7129 10.6553C16.6107 11.1867 16.1464 11.5708 15.606 11.5708H13.6893C13.657 11.5708 13.6248 11.5703 13.5927 11.5692C11.7671 11.5074 10.5559 9.64016 11.1852 7.92282L12.074 5.49743C12.0751 5.49442 12.0729 5.49128 12.0697 5.49128H6.07064C2.71791 5.49123 0 8.21317 0 11.5708V12.5551C0 12.8049 0.202219 13.0074 0.451641 13.0074H10.8795H16.4795C17.2771 13.0074 17.992 12.784 18.2769 12.0379C18.3901 11.7415 18.5691 11.4733 18.8056 11.2621C20.1431 10.0676 22.0003 9.89018 22.8771 9.87882C23.1235 9.87563 23.2824 9.61359 23.169 9.39446Z" fill="#F9644B"></path><path d="M6.30122 8.51758H4.03195C1.80516 8.51758 0 10.3254 0 12.5554C0 12.8052 0.202219 13.0077 0.451641 13.0077H9.88153V12.1031C9.88153 10.1229 8.27855 8.51758 6.30122 8.51758Z" fill="#F94730"></path><path d="M7.33301 8.66992C7.53635 8.81634 7.66929 9.05467 7.66929 9.32465V13.0083H9.88155V12.1036C9.88155 10.4827 8.80723 9.11363 7.33301 8.66992Z" fill="#EA3326"></path><path d="M18.6625 3.23704H15.5232C15.3933 3.23704 15.2881 3.13165 15.2881 3.00162V2.22803C15.2881 2.02453 15.4263 1.84704 15.6234 1.79746L18.5966 1.04932C18.7675 1.00632 18.9331 1.1357 18.9331 1.31211V2.96613C18.9331 3.11574 18.812 3.23704 18.6625 3.23704Z" fill="#F94730"></path><path d="M18.5966 1.04931L17.6055 1.29872V3.23703H18.6625C18.812 3.23703 18.9331 3.11572 18.9331 2.96607V1.31205C18.9332 1.13568 18.7675 1.00635 18.5966 1.04931Z" fill="#E2EFFA"></path><path d="M17.5008 12.8339C17.8475 12.6883 18.1242 12.4386 18.2771 12.0383C18.3935 11.7335 18.5811 11.4606 18.8256 11.2449C20.1614 10.0664 22.0043 9.89058 22.8769 9.87922C23.1235 9.87603 23.2826 9.6139 23.1691 9.39462C22.5681 8.23328 21.2644 7.54091 19.8507 7.70578C19.8507 7.70578 17.2572 9.90138 17.5008 12.8339Z" fill="#F94730"></path><path d="M12.7673 0.0155048L14.3094 1.33318e-05C14.3884 -0.000784711 14.4636 0.0342821 14.5139 0.0953559L15.2557 0.996863C15.276 1.02151 15.2587 1.05869 15.2268 1.05892L13.065 1.07507C12.7919 1.07507 12.5706 0.853356 12.5706 0.579909V0.212621C12.5706 0.103759 12.6587 0.0155048 12.7673 0.0155048Z" fill="#1375A3"></path></svg>